<svg xmlns="http://www.w3.org/2000/svg" viewBox="0 0 1600 1000"><defs><linearGradient id="v" x1="0" y1="0" x2="0" y2="1"><stop stop-color="#e8e0ff"/><stop offset="1" stop-color="#fbf9ff"/></linearGradient></defs><rect width="1600" height="1000" fill="url(#v)"/><g fill="#b8a7e6" opacity=".48"><rect x="120" y="370" width="220" height="360" rx="12"/><rect x="390" y="300" width="240" height="430" rx="12"/><rect x="680" y="410" width="180" height="320" rx="12"/><rect x="910" y="280" width="280" height="450" rx="12"/><rect x="1240" y="350" width="230" height="380" rx="12"/></g><path d="M0 760C260 650 500 850 790 760s500-80 810 40V1000H0Z" fill="#b9b3e8" opacity=".45"/><g fill="#fff" opacity=".85"><path d="M560 430h210v250H560z"/><path d="M830 430h210v250H830z"/></g><path d="M590 470h150v22H590zm0 55h150v22H590zm0 55h120v22H590zm270-110h150v22H860zm0 55h150v22H860zm0 55h120v22H860z" fill="#7457b9" opacity=".65"/><path d="M760 720q40-70 80 0 40-70 80 0" fill="none" stroke="#fff" stroke-width="18" stroke-linecap="round"/><circle cx="800" cy="250" r="90" fill="#fff" opacity=".58"/><path d="M745 250h110M800 195v110" stroke="#7457b9" stroke-width="18" stroke-linecap="round" opacity=".6"/></svg>